<?xml version="1.0" encoding="UTF-8"?> <svg xmlns="http://www.w3.org/2000/svg" viewBox="0 0 407.85 183.84"><defs><style>.cls-1,.cls-2,.cls-3{fill:#fff;}.cls-1{stroke:#fff;stroke-miterlimit:10;stroke-width:0.35px;}.cls-2{fill-rule:evenodd;}</style></defs><title>footer-logo</title><g id="Logo_Icons" data-name="Logo &amp; Icons"><path class="cls-1" d="M39.67,183.66a4.25,4.25,0,0,1-2-.43,4,4,0,0,1-1.39-1.16,4.73,4.73,0,0,1-.82-1.65,6.85,6.85,0,0,1-.27-1.92v-8.23h1.61v8.12A5.78,5.78,0,0,0,37,179.7a3.75,3.75,0,0,0,.48,1.18,2.51,2.51,0,0,0,.88.83,2.75,2.75,0,0,0,1.35.31,2.81,2.81,0,0,0,1.35-.31,2.51,2.51,0,0,0,.88-.83,3.34,3.34,0,0,0,.48-1.18,5.79,5.79,0,0,0,.15-1.31v-8.12h1.61v8.23a6.85,6.85,0,0,1-.27,1.92,4.91,4.91,0,0,1-.82,1.65,4.07,4.07,0,0,1-1.4,1.16A4.25,4.25,0,0,1,39.67,183.66Z"></path><path class="cls-1" d="M67.51,180.3h0l3.4-10h2.5v13.06H71.83V172.41h0L68,183.33H67l-3.8-10.92h0v10.92H61.57V170.27h2.5Z"></path><path class="cls-1" d="M91.6,170.27h1.61v5.46H99v-5.46h1.62v13.06H99v-6H93.21v6H91.6Z"></path><path class="cls-1" d="M120.09,181.71h5.13v1.62h-6.74V170.27h1.61Z"></path><path class="cls-1" d="M142.94,183.33h-1.78l5-13.06h1.46l4.94,13.06h-1.82l-1.17-3.21H144.1Zm1.72-4.82H149l-2.15-6.12Z"></path><path class="cls-1" d="M176.51,180.71h0V170.27h1.61v13.06h-2l-6.07-10.66h0v10.66h-1.61V170.27h2.09Z"></path><path class="cls-1" d="M204,173a3.86,3.86,0,0,0-1.32-1,4.1,4.1,0,0,0-1.8-.39,3.9,3.9,0,0,0-1.82.42,4.07,4.07,0,0,0-1.38,1.13,5.41,5.41,0,0,0-.87,1.67,6.38,6.38,0,0,0-.31,2,6.52,6.52,0,0,0,.31,2.05,5.3,5.3,0,0,0,.87,1.67,4.11,4.11,0,0,0,1.4,1.11,4.15,4.15,0,0,0,1.85.41,6.29,6.29,0,0,0,1.49-.17,4,4,0,0,0,1.19-.48v-3.63h-2.55v-1.55h4.14v6.33a7.57,7.57,0,0,1-2,.84,8.61,8.61,0,0,1-2.34.3,5.9,5.9,0,0,1-2.47-.51,5.48,5.48,0,0,1-1.94-1.42,6.58,6.58,0,0,1-1.27-2.17,8.27,8.27,0,0,1-.45-2.78,8,8,0,0,1,.46-2.79,6.26,6.26,0,0,1,1.28-2.16,5.71,5.71,0,0,1,1.94-1.39,5.82,5.82,0,0,1,2.44-.5,6.08,6.08,0,0,1,2.45.46,5.32,5.32,0,0,1,1.8,1.23Z"></path><path class="cls-1" d="M221.86,183.33h-1.78l5-13.06h1.46l4.94,13.06h-1.82l-1.17-3.21H223Zm1.72-4.82h4.31l-2.15-6.12Z"></path><path class="cls-1" d="M268.4,183.33h-1.6V170.27h3.68a6.14,6.14,0,0,1,1.57.19,3.7,3.7,0,0,1,1.31.62,3,3,0,0,1,.89,1.12,4,4,0,0,1,.32,1.68,3.4,3.4,0,0,1-.78,2.33,3.48,3.48,0,0,1-2,1.12l3.21,6H273l-2.92-5.81H268.4Zm0-7.34h1.85a5.07,5.07,0,0,0,1.06-.11,2.73,2.73,0,0,0,.85-.36,1.82,1.82,0,0,0,.58-.65,2.42,2.42,0,0,0,0-2,1.75,1.75,0,0,0-.56-.64,2.41,2.41,0,0,0-.82-.34,4.62,4.62,0,0,0-1-.1h-2Z"></path><path class="cls-1" d="M293.09,183.33h-1.6V170.27h1.6Z"></path><path class="cls-1" d="M310.93,170.27h3.95a6.77,6.77,0,0,1,2.2.37,5.52,5.52,0,0,1,2,1.16,5.8,5.8,0,0,1,1.45,2,7.36,7.36,0,0,1,.55,3,7.11,7.11,0,0,1-.55,2.9,5.89,5.89,0,0,1-1.45,2,5.77,5.77,0,0,1-2,1.2,6.32,6.32,0,0,1-2.2.4h-3.95Zm1.61,11.45h2a5.51,5.51,0,0,0,1.93-.33,4.22,4.22,0,0,0,2.52-2.51,5.67,5.67,0,0,0,.36-2.08,5.85,5.85,0,0,0-.36-2.14,4.15,4.15,0,0,0-1-1.54,4.23,4.23,0,0,0-1.52-.94,5.51,5.51,0,0,0-1.93-.33h-2Z"></path><path class="cls-1" d="M346.68,173a3.81,3.81,0,0,0-1.33-1,4,4,0,0,0-1.79-.39,3.9,3.9,0,0,0-1.82.42,4.07,4.07,0,0,0-1.38,1.13,5.43,5.43,0,0,0-.88,1.67,6.67,6.67,0,0,0-.3,2,6.82,6.82,0,0,0,.3,2.05,5.32,5.32,0,0,0,.88,1.67,4,4,0,0,0,1.4,1.11,4.15,4.15,0,0,0,1.85.41,6.29,6.29,0,0,0,1.49-.17,4.12,4.12,0,0,0,1.19-.48v-3.63h-2.55v-1.55h4.14v6.33a7.57,7.57,0,0,1-2,.84,8.72,8.72,0,0,1-2.34.3,6,6,0,0,1-2.48-.51,5.57,5.57,0,0,1-1.94-1.42,6.55,6.55,0,0,1-1.26-2.17,8.57,8.57,0,0,1,0-5.57,6.11,6.11,0,0,1,1.28-2.16,5.62,5.62,0,0,1,1.94-1.39,5.78,5.78,0,0,1,2.43-.5,6.17,6.17,0,0,1,2.46.46,5.32,5.32,0,0,1,1.8,1.23Z"></path><path class="cls-1" d="M366.32,181.71h6v1.62h-7.61V170.27h7.37v1.6h-5.76v3.91h5.42v1.57h-5.42Z"></path><path class="cls-2" d="M6.88,126H1.11L0,132.81H27.22L28.46,126H22.69L31.9,72h5.65l1.1-6.76H11.27l-1,6.76H16.1Zm65.4-28.53H84l-34.38,35.3h36c7.56,0,14.72-5.16,15.68-11.46l1.09-6.08H97.45l-.28,1.61c-.26,1.48-2,2.75-3.84,2.75H71.59l34.25-35.29H69c-1.8,0-3.18-1.28-2.88-2.88l.26-1.5h-5l-1,6.09c-1.11,6.31,4.24,11.46,11.81,11.46m134.88-3.9c.14-5.6-5-10.09-12-10.09-7.56,0-14.57,5.17-15.67,11.46l-.82,4.25h4.94l.83-4.25c.26-1.46,2.06-2.74,3.85-2.74s3.16,1.28,2.89,2.74l-6.32,37.83H200.7l4.8-29.57,4.12-4.47c4.82-5.37,7.3-7.12,9.92-7.12s4.53,1.87,4.11,4L219,123.08c-1.1,6.29,4.27,11.46,11.83,11.46s14.58-5.17,15.67-11.46l.84-4.37h-5l-.81,4.37a3.93,3.93,0,0,1-3.73,2.73c-2.05,0-3.29-1.26-3-2.73L239.6,95c1.11-7.1-4.81-12.83-13.34-12.83-8.38,0-13.73,5.15-17.32,9.39ZM299.9,91c6.19,0,10.3,4.69,9.34,10.43s-6.72,10.42-12.93,10.42-10.45-4.68-9.48-10.42S293.72,91,299.9,91M280.09,127.3c1.79,0,4.4-1.83,8.8-1.83,7.56,0,12.25,4.24,11.42,9.63s-8,9.64-15.82,9.64c-7.42,0-11.13-3.92-12.65-7.58l-7.29,3.22c1,4.58,8.4,11.58,22.28,11.58s26.82-9.53,28.75-21.08c1.23-7.59-2.62-13.31-9.36-16.53,5.91-3.09,10-7.67,10.85-12.94A12.09,12.09,0,0,0,316,94.09c2.49-1.73,5.09-4.27,5.79-8l1.23-7.9h-5L317.49,82a4,4,0,0,1-3.84,2.76h-16.5c-12.39,0-23.93,7.44-25.44,16.61-1,5.38,1.79,10.42,7,13.41a8.33,8.33,0,0,0-5.36,6c-.71,3.67,2.46,6.52,6.73,6.52m89.11-1.38c-5.37,0-8.39-7.89-6.88-17.52,1.66-9.73,7.44-17.65,12.93-17.65s8.39,7.92,6.88,17.65-7.56,17.52-12.93,17.52m26.13-2.84,5.91-34.28c.55-3.68-2.62-6.65-6.88-6.65s-8.38,3-8.92,6.65l-.14.58a16.87,16.87,0,0,0-14-7.23c-12.1,0-23.93,11.81-26.27,26.25s5.37,26.14,17.45,26.14c6.19,0,12.4-3.12,17.2-7.91,1,4.57,5.65,7.91,11.69,7.91,7.57,0,14.71-5.17,15.69-11.46l.82-4.37h-5l-.82,4.37c-.15,1.47-2.08,2.73-3.72,2.73-1.93,0-3.16-1.26-3-2.73"></path><path class="cls-2" d="M127.16,15.47c17.86-19.71,36.71-21,52.23-1.58-21.5,26.61-37.43,28-52.23,1.58"></path><path class="cls-3" d="M112,29.14c26.41,33.21,35.7,44.3,78,0l.49.82,1.88,3.41C152.2,73.8,141.59,80.15,107.53,34.6c1.51-1.92,3-3.72,4.49-5.46"></path><path class="cls-3" d="M121.56,19.82c22.8,26.21,23.18,37.27,61.55,0,.86,1.13,1.68,2.3,2.54,3.51-37.32,35.81-40.92,36.84-68.72,1.25,1.57-1.69,3.11-3.27,4.63-4.76"></path><path class="cls-3" d="M149.59,84.52c14-3,29.65-16,49.44-38.81-.66-1.44-1.29-2.85-2-4.22-50.74,51.91-63.55,36.84-95.26-.13-1.15,1.6-2.33,3.23-3.51,4.9C112,68.75,124.17,81.41,137.12,84.49c-1.36,3.54-2.62,5.79-3.56,11.43a118,118,0,0,0-2.17,13.22c-.54,4.63-.71,18.31-1.23,22.92,0,.94,4.56.64,9.24.75,4.93.11,9.94.27,9.81-.78-1-9.43-3.36-24-2.28-33.24A79.1,79.1,0,0,1,149.59,84.52Z"></path></g></svg> 